<svg xmlns="http://www.w3.org/2000/svg" viewBox="0 0 600 400"><defs><linearGradient id="tech-g1" x1="0" y1="0" x2="1" y2="1"><stop offset="0%" stop-color="#1a1a1a"/><stop offset="100%" stop-color="#0a0a0a"/></linearGradient></defs><rect width="600" height="400" fill="url(#tech-g1)" rx="20"/><g opacity="0.6"><line x1="0" y1="100" x2="600" y2="100" stroke="rgba(255,255,255,0.08)"/><line x1="0" y1="200" x2="600" y2="200" stroke="rgba(255,255,255,0.08)"/><line x1="0" y1="300" x2="600" y2="300" stroke="rgba(255,255,255,0.08)"/><line x1="150" y1="0" x2="150" y2="400" stroke="rgba(255,255,255,0.08)"/><line x1="300" y1="0" x2="300" y2="400" stroke="rgba(255,255,255,0.08)"/><line x1="450" y1="0" x2="450" y2="400" stroke="rgba(255,255,255,0.08)"/></g><rect x="60" y="60" width="120" height="80" rx="8" fill="rgba(232,33,39,0.15)" stroke="#e82127" stroke-opacity="0.6" stroke-width="1"/><rect x="220" y="60" width="120" height="80" rx="8" fill="rgba(255,255,255,0.04)" stroke="rgba(255,255,255,0.15)" stroke-width="1"/><rect x="380" y="60" width="160" height="80" rx="8" fill="rgba(255,255,255,0.06)" stroke="rgba(255,255,255,0.15)" stroke-width="1"/><rect x="60" y="180" width="160" height="80" rx="8" fill="rgba(255,255,255,0.04)" stroke="rgba(255,255,255,0.15)" stroke-width="1"/><rect x="260" y="180" width="120" height="80" rx="8" fill="rgba(232,33,39,0.15)" stroke="#e82127" stroke-opacity="0.6" stroke-width="1"/><rect x="420" y="180" width="120" height="80" rx="8" fill="rgba(255,255,255,0.04)" stroke="rgba(255,255,255,0.15)" stroke-width="1"/><rect x="60" y="300" width="240" height="60" rx="8" fill="rgba(255,255,255,0.06)" stroke="rgba(255,255,255,0.15)" stroke-width="1"/><rect x="320" y="300" width="220" height="60" rx="8" fill="rgba(232,33,39,0.10)" stroke="#e82127" stroke-opacity="0.4" stroke-width="1"/><circle cx="120" cy="100" r="3" fill="#e82127"/><circle cx="320" cy="100" r="3" fill="#fff"/><circle cx="280" cy="220" r="3" fill="#e82127"/><circle cx="450" cy="330" r="3" fill="#fff"/><path d="M120 100 Q200 100 320 100" stroke="#e82127" stroke-width="1" stroke-dasharray="3,3" fill="none" opacity="0.6"/><path d="M280 220 Q400 220 450 220" stroke="#e82127" stroke-width="1" stroke-dasharray="3,3" fill="none" opacity="0.6"/><path d="M120 180 Q120 280 180 330" stroke="#fff" stroke-width="1" stroke-dasharray="3,3" fill="none" opacity="0.4"/></svg>